<?xml version="1.0" encoding="utf-8"?>
<!-- Generator: Adobe Illustrator 17.0.0, SVG Export Plug-In . SVG Version: 6.00 Build 0)  -->
<!DOCTYPE svg PUBLIC "-//W3C//DTD SVG 1.1//EN" "http://www.w3.org/Graphics/SVG/1.1/DTD/svg11.dtd">
<svg version="1.1" id="Capa_1" xmlns="http://www.w3.org/2000/svg" xmlns:xlink="http://www.w3.org/1999/xlink" x="0px" y="0px"
	 width="505.495px" height="500px" viewBox="195.505 0 505.495 500" enable-background="new 195.505 0 505.495 500"
	 xml:space="preserve">
<g id="Settings">
	<g>
		<path fill="#FFFFFF" d="M693.928,222.241c-0.791-7.028-8.985-12.31-16.072-12.31c-22.91,0-43.24-13.452-51.766-34.257
			c-8.71-21.309-3.094-46.159,13.981-61.822c5.375-4.913,6.028-13.138,1.52-18.851c-11.726-14.89-25.053-28.341-39.605-39.998
			c-5.698-4.573-14.059-3.937-19,1.535c-14.901,16.503-41.668,22.637-62.352,14.007c-21.524-9.054-35.098-30.865-33.769-54.278
			c0.437-7.354-4.937-13.748-12.269-14.602c-18.674-2.16-37.512-2.227-56.242-0.149c-7.248,0.8-12.623,7.043-12.379,14.304
			c0.815,23.182-12.922,44.611-34.233,53.34c-20.436,8.347-47.015,2.266-61.887-14.09c-4.915-5.388-13.14-6.05-18.866-1.587
			c-14.983,11.756-28.61,25.217-40.444,39.985c-4.616,5.741-3.937,14.062,1.492,19.002c17.4,15.757,23.018,40.824,13.979,62.378
			c-8.63,20.55-29.969,33.793-54.397,33.793c-7.927-0.255-13.573,5.066-14.44,12.273c-2.199,18.782-2.225,37.92-0.108,56.854
			c0.785,7.058,9.229,12.293,16.393,12.293c21.77-0.556,42.671,12.922,51.439,34.259c8.74,21.309,3.122,46.144-13.979,61.82
			c-5.349,4.913-6.028,13.125-1.52,18.838c11.616,14.795,24.946,28.259,39.549,40.013c5.728,4.616,14.062,3.964,19.028-1.507
			c14.957-16.544,41.722-22.667,62.324-14.02c21.578,9.026,35.152,30.835,33.823,54.261c-0.433,7.358,4.967,13.763,12.269,14.604
			c9.553,1.114,19.164,1.671,28.8,1.671c9.147,0,18.297-0.502,27.444-1.52c7.25-0.8,12.621-7.043,12.377-14.317
			c-0.839-23.169,12.922-44.598,34.205-53.312c20.574-8.403,47.041-2.253,61.915,14.087c4.943,5.376,13.11,6.026,18.868,1.578
			c14.955-11.728,28.555-25.178,40.444-39.987c4.614-5.728,3.963-14.062-1.494-19c-17.4-15.757-23.046-40.827-14.007-62.367
			c8.498-20.276,29.044-33.89,51.143-33.89l3.092,0.08c7.168,0.582,13.763-4.939,14.632-12.256
			C696.019,260.296,696.045,241.175,693.928,222.241z M445.895,333.918c-45.984,0-83.389-37.404-83.389-83.389
			c0-45.983,37.404-83.389,83.389-83.389c45.983,0,83.387,37.406,83.387,83.389C529.282,296.514,491.878,333.918,445.895,333.918z"
			/>
	</g>
</g>
</svg>
