<?xml version="1.0" encoding="utf-8"?>
<!-- Generator: Adobe Illustrator 17.0.0, SVG Export Plug-In . SVG Version: 6.00 Build 0)  -->
<!DOCTYPE svg PUBLIC "-//W3C//DTD SVG 1.1//EN" "http://www.w3.org/Graphics/SVG/1.1/DTD/svg11.dtd">
<svg version="1.1" id="Layer_1" xmlns="http://www.w3.org/2000/svg" xmlns:xlink="http://www.w3.org/1999/xlink" x="0px" y="0px"
	 width="24px" height="24px" viewBox="0 0 24 24" enable-background="new 0 0 24 24" xml:space="preserve">
<circle fill="none" stroke="#FFFFFF" stroke-miterlimit="10" cx="12" cy="12" r="11.138"/>
<g>
	<rect x="5.765" y="12.294" fill="#FFFFFF" width="3.423" height="5.099"/>
	<path fill="#FFFFFF" d="M17.467,12.619l-0.216,0.022c0.909,0.259,0.609,1.42-0.043,1.489l-0.163,0.003
		c0.874,0.221,0.587,1.434-0.096,1.508l-0.194-0.007c0.714,0.117,0.701,1.474-0.378,1.474L11,17.111
		c-0.378,0-0.724-0.434-1.003-0.434H9.753v-4.185c0.302-0.19,0.675-0.434,0.883-0.609c0.391-0.335,1.914-2.279,1.996-3.253
		c0.036-0.429-0.1-1.537-0.014-1.75c0.086-0.213,0.796-0.438,1.159-0.1c0.363,0.339,0.491,1.29,0.491,2.005
		c0,0.716-0.267,1.817-0.409,2.389h3.725C18.501,11.177,18.437,12.606,17.467,12.619L17.467,12.619z"/>
</g>
</svg>
