<?xml version="1.0" encoding="utf-8"?>
<!-- Generator: Adobe Illustrator 17.0.0, SVG Export Plug-In . SVG Version: 6.00 Build 0)  -->
<!DOCTYPE svg PUBLIC "-//W3C//DTD SVG 1.1//EN" "http://www.w3.org/Graphics/SVG/1.1/DTD/svg11.dtd">
<svg version="1.1" id="Layer_1" xmlns="http://www.w3.org/2000/svg" xmlns:xlink="http://www.w3.org/1999/xlink" x="0px" y="0px"
	 width="24px" height="24px" viewBox="0 0 24 24" enable-background="new 0 0 24 24" xml:space="preserve">
<g>
	<g>
		<g>
			<polygon fill="#FFFFFF" points="5.081,6.841 7.058,14.52 16.435,14.52 18.158,6.841 11.906,10.143 			"/>
			<path fill="#FFFFFF" d="M16.537,14.648H6.959L4.888,6.606L11.904,10l6.439-3.401L16.537,14.648z M7.157,14.393h9.176l1.64-7.31
				l-6.064,3.203l-6.636-3.21L7.157,14.393z"/>
		</g>
		<g>
			<path fill="#FFFFFF" d="M22.495,7.306l-6.507,4.191L11.906,4.47l-4.083,7.026l-6.506-4.19c0,0,5.741,10.41,4.72,13.345h5.869
				h5.869C16.754,17.716,22.495,7.306,22.495,7.306z"/>
			<path fill="#FFFFFF" d="M17.954,20.778H5.858l0.059-0.169c0.99-2.847-4.654-13.138-4.712-13.241L0.961,6.925l6.819,4.392
				l4.126-7.101l4.126,7.101l6.819-4.392l-0.244,0.442c-0.057,0.104-5.702,10.394-4.711,13.241L17.954,20.778z M6.208,20.523h11.397
				c-0.694-2.811,3.473-10.846,4.542-12.84l-6.201,3.994l-4.039-6.952l-4.039,6.952l-6.2-3.994
				C2.735,9.677,6.902,17.712,6.208,20.523z"/>
			<g>
				<circle fill="#FFFFFF" cx="1.149" cy="6.918" r="0.6"/>
				<path fill="#FFFFFF" d="M1.149,7.614c-0.383,0-0.695-0.312-0.695-0.695c0-0.384,0.312-0.695,0.695-0.695
					c0.384,0,0.696,0.312,0.696,0.695S1.533,7.614,1.149,7.614z M1.149,6.414c-0.278,0-0.504,0.226-0.504,0.504
					c0,0.278,0.226,0.504,0.504,0.504s0.504-0.226,0.504-0.504C1.653,6.641,1.427,6.414,1.149,6.414z"/>
			</g>
			<g>
				<circle fill="#FFFFFF" cx="11.906" cy="3.918" r="0.6"/>
				<path fill="#FFFFFF" d="M11.906,4.613c-0.383,0-0.695-0.312-0.695-0.695c0-0.384,0.312-0.696,0.695-0.696
					c0.384,0,0.695,0.312,0.695,0.696C12.602,4.301,12.29,4.613,11.906,4.613z M11.906,3.413c-0.278,0-0.504,0.226-0.504,0.504
					s0.226,0.504,0.504,0.504s0.504-0.226,0.504-0.504C12.41,3.64,12.184,3.413,11.906,3.413z"/>
			</g>
			<g>
				<circle fill="#FFFFFF" cx="22.851" cy="6.841" r="0.6"/>
				<path fill="#FFFFFF" d="M22.851,7.536c-0.384,0-0.696-0.312-0.696-0.695c0-0.384,0.312-0.695,0.696-0.695
					c0.383,0,0.695,0.312,0.695,0.695C23.546,7.225,23.234,7.536,22.851,7.536z M22.851,6.337c-0.278,0-0.504,0.226-0.504,0.504
					c0,0.278,0.226,0.504,0.504,0.504s0.504-0.226,0.504-0.504C23.355,6.563,23.129,6.337,22.851,6.337z"/>
			</g>
		</g>
	</g>
</g>
</svg>
