<?xml version="1.0" encoding="utf-8"?>
<!-- Generator: Adobe Illustrator 17.0.0, SVG Export Plug-In . SVG Version: 6.00 Build 0)  -->
<!DOCTYPE svg PUBLIC "-//W3C//DTD SVG 1.1//EN" "http://www.w3.org/Graphics/SVG/1.1/DTD/svg11.dtd">
<svg version="1.1" id="Layer_1" xmlns="http://www.w3.org/2000/svg" xmlns:xlink="http://www.w3.org/1999/xlink" x="0px" y="0px"
	 width="24px" height="24px" viewBox="0 0 24 24" enable-background="new 0 0 24 24" xml:space="preserve">
<g>
	<g>
		<linearGradient id="SVGID_1_" gradientUnits="userSpaceOnUse" x1="11.6231" y1="13.5652" x2="11.6231" y2="5.9678">
			<stop  offset="0" style="stop-color:#FFE9B9"/>
			<stop  offset="0.1027" style="stop-color:#FDE4A4"/>
			<stop  offset="0.2951" style="stop-color:#FADB83"/>
			<stop  offset="0.4" style="stop-color:#F9D876"/>
			<stop  offset="1" style="stop-color:#BA7418"/>
		</linearGradient>
		<polygon fill="url(#SVGID_1_)" points="5.154,5.968 7.111,13.565 16.388,13.565 18.092,5.968 11.907,9.235 		"/>
		<linearGradient id="SVGID_2_" gradientUnits="userSpaceOnUse" x1="11.6194" y1="13.6914" x2="11.6194" y2="5.7284">
			<stop  offset="0" style="stop-color:#BA7418"/>
			<stop  offset="0.2909" style="stop-color:#F9D876"/>
			<stop  offset="0.3417" style="stop-color:#FADB83"/>
			<stop  offset="0.4351" style="stop-color:#FDE4A4"/>
			<stop  offset="0.4848" style="stop-color:#FFE9B9"/>
			<stop  offset="0.5325" style="stop-color:#FEE6AC"/>
			<stop  offset="0.62" style="stop-color:#FBDD8B"/>
			<stop  offset="0.6667" style="stop-color:#F9D876"/>
			<stop  offset="0.7299" style="stop-color:#F1CB6A"/>
			<stop  offset="0.8466" style="stop-color:#DCA94A"/>
			<stop  offset="1" style="stop-color:#BA7418"/>
		</linearGradient>
		<path fill="url(#SVGID_2_)" d="M16.489,13.691H7.013L4.964,5.735l6.941,3.358l6.37-3.365L16.489,13.691z M7.208,13.439h9.078
			l1.622-7.232l-6,3.169L5.344,6.2L7.208,13.439z"/>
	</g>
	<g>
		<linearGradient id="SVGID_3_" gradientUnits="userSpaceOnUse" x1="1.5339" y1="11.626" x2="22.2602" y2="11.626">
			<stop  offset="0" style="stop-color:#BA7418"/>
			<stop  offset="0.2909" style="stop-color:#F9D876"/>
			<stop  offset="0.3417" style="stop-color:#FADB83"/>
			<stop  offset="0.4351" style="stop-color:#FDE4A4"/>
			<stop  offset="0.4848" style="stop-color:#FFE9B9"/>
			<stop  offset="0.5325" style="stop-color:#FEE6AC"/>
			<stop  offset="0.62" style="stop-color:#FBDD8B"/>
			<stop  offset="0.6667" style="stop-color:#F9D876"/>
			<stop  offset="0.7299" style="stop-color:#F1CB6A"/>
			<stop  offset="0.8466" style="stop-color:#DCA94A"/>
			<stop  offset="1" style="stop-color:#BA7418"/>
		</linearGradient>
		<path fill="url(#SVGID_3_)" d="M22.383,6.427l-6.437,4.146l-4.039-6.952l-4.039,6.952L1.431,6.427c0,0,5.68,10.3,4.67,13.203
			h5.806h5.806C16.704,16.727,22.383,6.427,22.383,6.427z"/>
		<linearGradient id="SVGID_4_" gradientUnits="userSpaceOnUse" x1="11.9071" y1="19.7563" x2="11.9071" y2="3.3708">
			<stop  offset="0" style="stop-color:#BA7418"/>
			<stop  offset="0.2909" style="stop-color:#F9D876"/>
			<stop  offset="0.3417" style="stop-color:#FADB83"/>
			<stop  offset="0.4351" style="stop-color:#FDE4A4"/>
			<stop  offset="0.4848" style="stop-color:#FFE9B9"/>
			<stop  offset="0.5325" style="stop-color:#FEE6AC"/>
			<stop  offset="0.62" style="stop-color:#FBDD8B"/>
			<stop  offset="0.6667" style="stop-color:#F9D876"/>
			<stop  offset="0.7299" style="stop-color:#F1CB6A"/>
			<stop  offset="0.8466" style="stop-color:#DCA94A"/>
			<stop  offset="1" style="stop-color:#BA7418"/>
		</linearGradient>
		<path fill="url(#SVGID_4_)" d="M17.891,19.756H5.923l0.058-0.168c0.98-2.817-4.605-12.998-4.661-13.1L1.079,6.051l6.747,4.345
			l4.082-7.025l4.082,7.025l6.747-4.345l-0.242,0.438c-0.056,0.102-5.641,10.283-4.661,13.1L17.891,19.756z M6.269,19.504h11.275
			C16.858,16.722,20.98,8.774,22.038,6.8l-6.135,3.951l-3.996-6.878l-3.996,6.878L1.776,6.8C2.834,8.774,6.956,16.722,6.269,19.504z
			"/>
		<g>
			<linearGradient id="SVGID_5_" gradientUnits="userSpaceOnUse" x1="1.2647" y1="6.6377" x2="1.2647" y2="5.451">
				<stop  offset="0" style="stop-color:#BA7418"/>
				<stop  offset="0.2909" style="stop-color:#F9D876"/>
				<stop  offset="0.3417" style="stop-color:#FADB83"/>
				<stop  offset="0.4351" style="stop-color:#FDE4A4"/>
				<stop  offset="0.4848" style="stop-color:#FFE9B9"/>
				<stop  offset="0.5325" style="stop-color:#FEE6AC"/>
				<stop  offset="0.62" style="stop-color:#FBDD8B"/>
				<stop  offset="0.6667" style="stop-color:#F9D876"/>
				<stop  offset="0.7299" style="stop-color:#F1CB6A"/>
				<stop  offset="0.8466" style="stop-color:#DCA94A"/>
				<stop  offset="1" style="stop-color:#BA7418"/>
			</linearGradient>
			<circle fill="url(#SVGID_5_)" cx="1.265" cy="6.044" r="0.593"/>
			<linearGradient id="SVGID_6_" gradientUnits="userSpaceOnUse" x1="0.5767" y1="6.0443" x2="1.9529" y2="6.0443">
				<stop  offset="0" style="stop-color:#BA7418"/>
				<stop  offset="0.2909" style="stop-color:#F9D876"/>
				<stop  offset="0.3417" style="stop-color:#FADB83"/>
				<stop  offset="0.4351" style="stop-color:#FDE4A4"/>
				<stop  offset="0.4848" style="stop-color:#FFE9B9"/>
				<stop  offset="0.5325" style="stop-color:#FEE6AC"/>
				<stop  offset="0.62" style="stop-color:#FBDD8B"/>
				<stop  offset="0.6667" style="stop-color:#F9D876"/>
				<stop  offset="0.7299" style="stop-color:#F1CB6A"/>
				<stop  offset="0.8466" style="stop-color:#DCA94A"/>
				<stop  offset="1" style="stop-color:#BA7418"/>
			</linearGradient>
			<path fill="url(#SVGID_6_)" d="M1.264,6.732c-0.379,0-0.688-0.308-0.688-0.688c0-0.379,0.309-0.688,0.688-0.688
				c0.38,0,0.688,0.308,0.688,0.688C1.953,6.424,1.644,6.732,1.264,6.732z M1.264,5.546c-0.275,0-0.498,0.224-0.498,0.499
				c0,0.275,0.224,0.499,0.498,0.499c0.275,0,0.499-0.224,0.499-0.499C1.764,5.77,1.54,5.546,1.264,5.546z"/>
		</g>
		<g>
			<linearGradient id="SVGID_7_" gradientUnits="userSpaceOnUse" x1="11.9071" y1="3.6688" x2="11.9071" y2="2.4821">
				<stop  offset="0" style="stop-color:#BA7418"/>
				<stop  offset="0.2909" style="stop-color:#F9D876"/>
				<stop  offset="0.3417" style="stop-color:#FADB83"/>
				<stop  offset="0.4351" style="stop-color:#FDE4A4"/>
				<stop  offset="0.4848" style="stop-color:#FFE9B9"/>
				<stop  offset="0.5325" style="stop-color:#FEE6AC"/>
				<stop  offset="0.62" style="stop-color:#FBDD8B"/>
				<stop  offset="0.6667" style="stop-color:#F9D876"/>
				<stop  offset="0.7299" style="stop-color:#F1CB6A"/>
				<stop  offset="0.8466" style="stop-color:#DCA94A"/>
				<stop  offset="1" style="stop-color:#BA7418"/>
			</linearGradient>
			<circle fill="url(#SVGID_7_)" cx="11.907" cy="3.076" r="0.593"/>
			<linearGradient id="SVGID_8_" gradientUnits="userSpaceOnUse" x1="11.2192" y1="3.0754" x2="12.5951" y2="3.0754">
				<stop  offset="0" style="stop-color:#BA7418"/>
				<stop  offset="0.2909" style="stop-color:#F9D876"/>
				<stop  offset="0.3417" style="stop-color:#FADB83"/>
				<stop  offset="0.4351" style="stop-color:#FDE4A4"/>
				<stop  offset="0.4848" style="stop-color:#FFE9B9"/>
				<stop  offset="0.5325" style="stop-color:#FEE6AC"/>
				<stop  offset="0.62" style="stop-color:#FBDD8B"/>
				<stop  offset="0.6667" style="stop-color:#F9D876"/>
				<stop  offset="0.7299" style="stop-color:#F1CB6A"/>
				<stop  offset="0.8466" style="stop-color:#DCA94A"/>
				<stop  offset="1" style="stop-color:#BA7418"/>
			</linearGradient>
			<path fill="url(#SVGID_8_)" d="M11.907,3.763c-0.379,0-0.688-0.309-0.688-0.688c0-0.38,0.308-0.688,0.688-0.688
				c0.38,0,0.688,0.309,0.688,0.688C12.595,3.455,12.287,3.763,11.907,3.763z M11.907,2.577c-0.275,0-0.499,0.224-0.499,0.499
				c0,0.275,0.224,0.499,0.499,0.499s0.499-0.224,0.499-0.499C12.406,2.801,12.182,2.577,11.907,2.577z"/>
		</g>
		<g>
			<linearGradient id="SVGID_9_" gradientUnits="userSpaceOnUse" x1="22.7353" y1="6.5611" x2="22.7353" y2="5.3743">
				<stop  offset="0" style="stop-color:#BA7418"/>
				<stop  offset="0.2909" style="stop-color:#F9D876"/>
				<stop  offset="0.3417" style="stop-color:#FADB83"/>
				<stop  offset="0.4351" style="stop-color:#FDE4A4"/>
				<stop  offset="0.4848" style="stop-color:#FFE9B9"/>
				<stop  offset="0.5325" style="stop-color:#FEE6AC"/>
				<stop  offset="0.62" style="stop-color:#FBDD8B"/>
				<stop  offset="0.6667" style="stop-color:#F9D876"/>
				<stop  offset="0.7299" style="stop-color:#F1CB6A"/>
				<stop  offset="0.8466" style="stop-color:#DCA94A"/>
				<stop  offset="1" style="stop-color:#BA7418"/>
			</linearGradient>
			<circle fill="url(#SVGID_9_)" cx="22.735" cy="5.968" r="0.593"/>
			<linearGradient id="SVGID_10_" gradientUnits="userSpaceOnUse" x1="22.0473" y1="5.9677" x2="23.4233" y2="5.9677">
				<stop  offset="0" style="stop-color:#BA7418"/>
				<stop  offset="0.2909" style="stop-color:#F9D876"/>
				<stop  offset="0.3417" style="stop-color:#FADB83"/>
				<stop  offset="0.4351" style="stop-color:#FDE4A4"/>
				<stop  offset="0.4848" style="stop-color:#FFE9B9"/>
				<stop  offset="0.5325" style="stop-color:#FEE6AC"/>
				<stop  offset="0.62" style="stop-color:#FBDD8B"/>
				<stop  offset="0.6667" style="stop-color:#F9D876"/>
				<stop  offset="0.7299" style="stop-color:#F1CB6A"/>
				<stop  offset="0.8466" style="stop-color:#DCA94A"/>
				<stop  offset="1" style="stop-color:#BA7418"/>
			</linearGradient>
			<path fill="url(#SVGID_10_)" d="M22.736,6.656c-0.38,0-0.688-0.309-0.688-0.688c0-0.38,0.308-0.688,0.688-0.688
				c0.379,0,0.688,0.309,0.688,0.688C23.423,6.347,23.115,6.656,22.736,6.656z M22.736,5.469c-0.275,0-0.499,0.224-0.499,0.499
				c0,0.275,0.224,0.499,0.499,0.499c0.275,0,0.498-0.224,0.498-0.499C23.234,5.693,23.01,5.469,22.736,5.469z"/>
		</g>
	</g>
</g>
</svg>
