<?xml version="1.0" encoding="utf-8"?>
<!-- Generator: Adobe Illustrator 17.0.0, SVG Export Plug-In . SVG Version: 6.00 Build 0)  -->
<!DOCTYPE svg PUBLIC "-//W3C//DTD SVG 1.1//EN" "http://www.w3.org/Graphics/SVG/1.1/DTD/svg11.dtd">
<svg version="1.1" id="Capa_1" xmlns="http://www.w3.org/2000/svg" xmlns:xlink="http://www.w3.org/1999/xlink" x="0px" y="0px"
	 width="266.539px" height="500px" viewBox="624.461 0 266.539 500" enable-background="new 624.461 0 266.539 500"
	 xml:space="preserve">
<g>
	<path fill="#FFFFFF" d="M886.274,238.55L652.425,4.725C649.299,1.551,645.228,0,641.012,0c-4.144,0-8.312,1.551-11.462,4.725
		l-0.315,0.291c-3.053,3.078-4.774,7.246-4.774,11.511v113.459c0,4.313,1.721,8.433,4.774,11.414l108.588,108.612l-108.588,108.54
		c-3.053,3.053-4.774,7.125-4.774,11.511v113.411c0,4.362,1.721,8.578,4.774,11.511l0.315,0.242
		c3.005,3.078,7.125,4.774,11.462,4.774c4.337,0,8.433-1.696,11.486-4.774l233.776-233.752
		C892.575,255.198,892.575,244.85,886.274,238.55z"/>
</g>
</svg>
