<?xml version="1.0" encoding="utf-8"?>
<!-- Generator: Adobe Illustrator 17.0.0, SVG Export Plug-In . SVG Version: 6.00 Build 0)  -->
<!DOCTYPE svg PUBLIC "-//W3C//DTD SVG 1.1//EN" "http://www.w3.org/Graphics/SVG/1.1/DTD/svg11.dtd">
<svg version="1.1" id="Capa_1" xmlns="http://www.w3.org/2000/svg" xmlns:xlink="http://www.w3.org/1999/xlink" x="0px" y="0px"
	 width="504.5px" height="397px" viewBox="191 51.5 504.5 397" enable-background="new 191 51.5 504.5 397" xml:space="preserve">
<g id="Mix_playlist">
	<path fill="#FFFFFF" d="M470.502,212.5c12.351-20.07,27.759-24.999,53.126-24.999h62.499v46.874L695.5,150L586.127,62.5v46.876
		h-62.499c-19.581,0-41.36,6.982-58.497,13.816c-31.249,12.43-51.124,33.816-64.43,64.308c-7.153,16.407-8.643,54.104-18.945,75.002
		c-15.429,31.249-35.89,49.998-61.256,49.998H195.5l0.002,78.127h124.999c11.768,0,38.231-6.984,55.37-13.819
		c31.249-12.426,51.93-33.57,74.026-81.786C459.297,274.487,464.25,222.656,470.502,212.5z M368.426,215.501
		c0.072-0.416,0.147-0.829,0.22-1.22c2.441-13.77,4.784-26.783,9.13-36.793c6.64-15.234,15.183-27.88,24.854-39.16
		c-8.154-6.249-16.894-11.206-26.76-15.138c-17.138-6.834-35.789-13.816-55.37-13.816H195.502l-0.002,78.123h125.001
		C339.153,187.498,355.12,197.705,368.426,215.501z M586.127,312.5l-65.626-0.002c-21.388,0-33.399-4.101-44.068-17.234
		c-1.172,3.639-2.416,7.129-3.808,10.181c-10.816,23.583-21.777,41.699-34.011,56.154c7.885,5.882,16.409,11.206,26.514,15.209
		c17.138,6.835,38.916,13.819,58.497,13.819h62.499v46.874L695.497,350l-109.373-84.374V312.5H586.127z"/>
</g>
</svg>
