<?xml version="1.0" encoding="utf-8"?>
<!-- Generator: Adobe Illustrator 17.0.0, SVG Export Plug-In . SVG Version: 6.00 Build 0)  -->
<!DOCTYPE svg PUBLIC "-//W3C//DTD SVG 1.1//EN" "http://www.w3.org/Graphics/SVG/1.1/DTD/svg11.dtd">
<svg version="1.1" id="Layer_1" xmlns="http://www.w3.org/2000/svg" xmlns:xlink="http://www.w3.org/1999/xlink" x="0px" y="0px"
	 width="24px" height="24px" viewBox="0 0 24 24" enable-background="new 0 0 24 24" xml:space="preserve">
<g>
	<g>
		<polygon fill="#FFFFFF" points="12,1.212 15.513,8.33 23.367,9.471 17.684,15.011 19.025,22.834 12,19.141 4.975,22.834 
			6.316,15.011 0.633,9.471 8.487,8.33 		"/>
		<path fill="#FFFFFF" d="M19.168,23.031L12,19.262l-7.168,3.769l1.369-7.982L0.402,9.396l8.014-1.164L12,0.969l3.584,7.262
			l8.014,1.164l-5.799,5.653L19.168,23.031z M0.864,9.546l5.568,5.428l-1.315,7.664L12,19.019l0.05,0.027l6.833,3.592l-1.315-7.664
			l0.04-0.04l5.528-5.388l-7.695-1.118L12,1.455L8.559,8.428L0.864,9.546z"/>
	</g>
</g>
</svg>
